{
	"asset":{
		"generator":"Khronos glTF Blender I/O v4.1.63",
		"version":"2.0"
	},
	"extensionsUsed":[
		"KHR_texture_transform"
	],
	"extensionsRequired":[
		"KHR_texture_transform"
	],
	"scene":0,
	"scenes":[
		{
			"name":"Scene",
			"nodes":[
				0,
				1,
				2,
				3
			]
		}
	],
	"nodes":[
		{
			"mesh":0,
			"name":"Cube",
			"rotation":[
				0,
				-1,
				0,
				1.6292068494294654e-07
			]
		},
		{
			"mesh":1,
			"name":"Lock",
			"rotation":[
				0.3026447296142578,
				-0.2503918409347534,
				-0.16877210140228271,
				0.9040057063102722
			],
			"scale":[
				0.8697775602340698,
				0.8697776198387146,
				0.8697776198387146
			],
			"translation":[
				-0.204611137509346,
				0.45877185463905334,
				-1.387789011001587
			]
		},
		{
			"mesh":2,
			"name":"Cube.001",
			"rotation":[
				0,
				-1,
				0,
				1.6292068494294654e-07
			]
		},
		{
			"mesh":3,
			"name":"Abdecker",
			"rotation":[
				-0.25999119877815247,
				0,
				0,
				0.9656109809875488
			],
			"scale":[
				0.6712072491645813,
				0.8711649775505066,
				0.5337013602256775
			],
			"translation":[
				0,
				0.6931283473968506,
				-1.016969919204712
			]
		}
	],
	"materials":[
		{
			"doubleSided":true,
			"name":"Cardboard",
			"normalTexture":{
				"extensions":{
					"KHR_texture_transform":{
						"offset":[
							0,
							0.7999999970197678
						],
						"scale":[
							0.20000000298023224,
							0.20000000298023224
						]
					}
				},
				"index":0,
				"texCoord":1
			},
			"pbrMetallicRoughness":{
				"baseColorTexture":{
					"extensions":{
						"KHR_texture_transform":{
							"offset":[
								0,
								0.7999999970197678
							],
							"scale":[
								0.20000000298023224,
								0.20000000298023224
							]
						}
					},
					"index":1,
					"texCoord":1
				},
				"metallicFactor":0,
				"metallicRoughnessTexture":{
					"extensions":{
						"KHR_texture_transform":{
							"offset":[
								0,
								0.7999999970197678
							],
							"scale":[
								0.20000000298023224,
								0.20000000298023224
							]
						}
					},
					"index":2,
					"texCoord":1
				}
			}
		},
		{
			"doubleSided":true,
			"name":"Motiv",
			"pbrMetallicRoughness":{
				"baseColorTexture":{
					"index":3,
					"texCoord":1
				},
				"metallicFactor":0.1340206116437912,
				"roughnessFactor":0.18041235208511353
			}
		},
		{
			"name":"Gold",
			"pbrMetallicRoughness":{
				"baseColorFactor":[
					1,
					0.6560701727867126,
					0.44902873039245605,
					1
				],
				"roughnessFactor":0.2525773048400879
			}
		},
		{
			"doubleSided":true,
			"name":"Silber",
			"pbrMetallicRoughness":{
				"baseColorFactor":[
					0.7184249758720398,
					0.7184249758720398,
					0.7184249758720398,
					1
				],
				"roughnessFactor":0.27319586277008057
			}
		},
		{
			"doubleSided":true,
			"name":"Material",
			"pbrMetallicRoughness":{
				"baseColorFactor":[
					0,
					0,
					0,
					1
				],
				"metallicFactor":0
			}
		}
	],
	"meshes":[
		{
			"name":"Cube",
			"primitives":[
				{
					"attributes":{
						"POSITION":0,
						"NORMAL":1,
						"TEXCOORD_0":2,
						"TEXCOORD_1":3
					},
					"indices":4,
					"material":0
				},
				{
					"attributes":{
						"POSITION":5,
						"NORMAL":6,
						"TEXCOORD_0":7,
						"TEXCOORD_1":8
					},
					"indices":9,
					"material":1
				}
			]
		},
		{
			"name":"mesh",
			"primitives":[
				{
					"attributes":{
						"POSITION":10,
						"NORMAL":11
					},
					"indices":12,
					"material":2
				},
				{
					"attributes":{
						"POSITION":13,
						"NORMAL":14
					},
					"indices":15,
					"material":3
				}
			]
		},
		{
			"name":"Cube.001",
			"primitives":[
				{
					"attributes":{
						"POSITION":16,
						"NORMAL":17,
						"TEXCOORD_0":18,
						"TEXCOORD_1":19
					},
					"indices":20,
					"material":0
				}
			]
		},
		{
			"name":"Plane",
			"primitives":[
				{
					"attributes":{
						"POSITION":21,
						"NORMAL":22,
						"TEXCOORD_0":23
					},
					"indices":24,
					"material":4
				}
			]
		}
	],
	"textures":[
		{
			"sampler":0,
			"source":0
		},
		{
			"sampler":0,
			"source":1
		},
		{
			"sampler":0,
			"source":2
		},
		{
			"sampler":0,
			"source":3
		}
	],
	"images":[
		{
			"mimeType":"image/jpeg",
			"name":"DefaultMaterial_Normal",
			"uri":"DefaultMaterial_Normal.jpg"
		},
		{
			"mimeType":"image/jpeg",
			"name":"DefaultMaterial_BaseColor",
			"uri":"DefaultMaterial_BaseColor.jpg"
		},
		{
			"mimeType":"image/png",
			"name":"DefaultMaterial_Roughness",
			"uri":"DefaultMaterial_Roughness.png"
		},
		{
			"mimeType":"image/png",
			"name":"panorama",
			"uri":"panorama.png"
		}
	],
	"accessors":[
		{
			"bufferView":0,
			"componentType":5126,
			"count":4,
			"max":[
				1,
				-1,
				1
			],
			"min":[
				-1,
				-1,
				-1
			],
			"type":"VEC3"
		},
		{
			"bufferView":1,
			"componentType":5126,
			"count":4,
			"type":"VEC3"
		},
		{
			"bufferView":2,
			"componentType":5126,
			"count":4,
			"type":"VEC2"
		},
		{
			"bufferView":3,
			"componentType":5126,
			"count":4,
			"type":"VEC2"
		},
		{
			"bufferView":4,
			"componentType":5123,
			"count":6,
			"type":"SCALAR"
		},
		{
			"bufferView":5,
			"componentType":5126,
			"count":16,
			"max":[
				1,
				1,
				1
			],
			"min":[
				-1,
				-1,
				-1
			],
			"type":"VEC3"
		},
		{
			"bufferView":6,
			"componentType":5126,
			"count":16,
			"type":"VEC3"
		},
		{
			"bufferView":7,
			"componentType":5126,
			"count":16,
			"type":"VEC2"
		},
		{
			"bufferView":8,
			"componentType":5126,
			"count":16,
			"type":"VEC2"
		},
		{
			"bufferView":9,
			"componentType":5123,
			"count":24,
			"type":"SCALAR"
		},
		{
			"bufferView":10,
			"componentType":5126,
			"count":14161,
			"max":[
				0.32944053411483765,
				0.29323700070381165,
				0.15725010633468628
			],
			"min":[
				-0.34149906039237976,
				-0.5854876637458801,
				-0.19678112864494324
			],
			"type":"VEC3"
		},
		{
			"bufferView":11,
			"componentType":5126,
			"count":14161,
			"type":"VEC3"
		},
		{
			"bufferView":12,
			"componentType":5123,
			"count":82548,
			"type":"SCALAR"
		},
		{
			"bufferView":13,
			"componentType":5126,
			"count":10113,
			"max":[
				0.21855758130550385,
				0.9986750483512878,
				0.18179000914096832
			],
			"min":[
				-0.3581688404083252,
				-0.2888844907283783,
				-0.20413245260715485
			],
			"type":"VEC3"
		},
		{
			"bufferView":14,
			"componentType":5126,
			"count":10113,
			"type":"VEC3"
		},
		{
			"bufferView":15,
			"componentType":5123,
			"count":58320,
			"type":"SCALAR"
		},
		{
			"bufferView":16,
			"componentType":5126,
			"count":37,
			"max":[
				1,
				1,
				1
			],
			"min":[
				-1,
				1,
				-1
			],
			"type":"VEC3"
		},
		{
			"bufferView":17,
			"componentType":5126,
			"count":37,
			"type":"VEC3"
		},
		{
			"bufferView":18,
			"componentType":5126,
			"count":37,
			"type":"VEC2"
		},
		{
			"bufferView":19,
			"componentType":5126,
			"count":37,
			"type":"VEC2"
		},
		{
			"bufferView":20,
			"componentType":5123,
			"count":111,
			"type":"SCALAR"
		},
		{
			"bufferView":21,
			"componentType":5126,
			"count":4,
			"max":[
				1,
				0.07874435186386108,
				1
			],
			"min":[
				-1,
				0,
				0.19608113169670105
			],
			"type":"VEC3"
		},
		{
			"bufferView":22,
			"componentType":5126,
			"count":4,
			"type":"VEC3"
		},
		{
			"bufferView":23,
			"componentType":5126,
			"count":4,
			"type":"VEC2"
		},
		{
			"bufferView":24,
			"componentType":5123,
			"count":6,
			"type":"SCALAR"
		}
	],
	"bufferViews":[
		{
			"buffer":0,
			"byteLength":48,
			"byteOffset":0,
			"target":34962
		},
		{
			"buffer":0,
			"byteLength":48,
			"byteOffset":48,
			"target":34962
		},
		{
			"buffer":0,
			"byteLength":32,
			"byteOffset":96,
			"target":34962
		},
		{
			"buffer":0,
			"byteLength":32,
			"byteOffset":128,
			"target":34962
		},
		{
			"buffer":0,
			"byteLength":12,
			"byteOffset":160,
			"target":34963
		},
		{
			"buffer":0,
			"byteLength":192,
			"byteOffset":172,
			"target":34962
		},
		{
			"buffer":0,
			"byteLength":192,
			"byteOffset":364,
			"target":34962
		},
		{
			"buffer":0,
			"byteLength":128,
			"byteOffset":556,
			"target":34962
		},
		{
			"buffer":0,
			"byteLength":128,
			"byteOffset":684,
			"target":34962
		},
		{
			"buffer":0,
			"byteLength":48,
			"byteOffset":812,
			"target":34963
		},
		{
			"buffer":0,
			"byteLength":169932,
			"byteOffset":860,
			"target":34962
		},
		{
			"buffer":0,
			"byteLength":169932,
			"byteOffset":170792,
			"target":34962
		},
		{
			"buffer":0,
			"byteLength":165096,
			"byteOffset":340724,
			"target":34963
		},
		{
			"buffer":0,
			"byteLength":121356,
			"byteOffset":505820,
			"target":34962
		},
		{
			"buffer":0,
			"byteLength":121356,
			"byteOffset":627176,
			"target":34962
		},
		{
			"buffer":0,
			"byteLength":116640,
			"byteOffset":748532,
			"target":34963
		},
		{
			"buffer":0,
			"byteLength":444,
			"byteOffset":865172,
			"target":34962
		},
		{
			"buffer":0,
			"byteLength":444,
			"byteOffset":865616,
			"target":34962
		},
		{
			"buffer":0,
			"byteLength":296,
			"byteOffset":866060,
			"target":34962
		},
		{
			"buffer":0,
			"byteLength":296,
			"byteOffset":866356,
			"target":34962
		},
		{
			"buffer":0,
			"byteLength":222,
			"byteOffset":866652,
			"target":34963
		},
		{
			"buffer":0,
			"byteLength":48,
			"byteOffset":866876,
			"target":34962
		},
		{
			"buffer":0,
			"byteLength":48,
			"byteOffset":866924,
			"target":34962
		},
		{
			"buffer":0,
			"byteLength":32,
			"byteOffset":866972,
			"target":34962
		},
		{
			"buffer":0,
			"byteLength":12,
			"byteOffset":867004,
			"target":34963
		}
	],
	"samplers":[
		{
			"magFilter":9729,
			"minFilter":9987
		}
	],
	"buffers":[
		{
			"byteLength":867016,
			"uri":"model.bin"
		}
	]
}
