{
	"asset":{
		"generator":"Khronos glTF Blender I/O v4.1.63",
		"version":"2.0"
	},
	"extensionsUsed":[
		"KHR_texture_transform"
	],
	"extensionsRequired":[
		"KHR_texture_transform"
	],
	"scene":0,
	"scenes":[
		{
			"name":"Scene",
			"nodes":[
				0,
				1
			]
		}
	],
	"nodes":[
		{
			"mesh":0,
			"name":"Cube",
			"rotation":[
				0,
				-1,
				0,
				1.6292068494294654e-07
			]
		},
		{
			"mesh":1,
			"name":"Lock",
			"rotation":[
				0.3194018602371216,
				-0.2723309099674225,
				-0.12508007884025574,
				0.8989846110343933
			],
			"translation":[
				-0.20068402588367462,
				0.48434165120124817,
				-1.3716890811920166
			]
		}
	],
	"materials":[
		{
			"doubleSided":true,
			"name":"Cardboard",
			"normalTexture":{
				"extensions":{
					"KHR_texture_transform":{
						"offset":[
							0,
							0.7999999970197678
						],
						"scale":[
							0.20000000298023224,
							0.20000000298023224
						]
					}
				},
				"index":0,
				"texCoord":1
			},
			"pbrMetallicRoughness":{
				"baseColorTexture":{
					"extensions":{
						"KHR_texture_transform":{
							"offset":[
								0,
								0.7999999970197678
							],
							"scale":[
								0.20000000298023224,
								0.20000000298023224
							]
						}
					},
					"index":1,
					"texCoord":1
				},
				"metallicFactor":0,
				"metallicRoughnessTexture":{
					"extensions":{
						"KHR_texture_transform":{
							"offset":[
								0,
								0.7999999970197678
							],
							"scale":[
								0.20000000298023224,
								0.20000000298023224
							]
						}
					},
					"index":2,
					"texCoord":1
				}
			}
		},
		{
			"doubleSided":true,
			"name":"Motiv",
			"pbrMetallicRoughness":{
				"baseColorTexture":{
					"index":3,
					"texCoord":1
				},
				"metallicFactor":0.1340206116437912,
				"roughnessFactor":0.18041235208511353
			}
		},
		{
			"name":"Gold",
			"pbrMetallicRoughness":{
				"baseColorFactor":[
					1,
					0.6560701727867126,
					0.44902873039245605,
					1
				],
				"roughnessFactor":0.2525773048400879
			}
		},
		{
			"doubleSided":true,
			"name":"Silber",
			"pbrMetallicRoughness":{
				"baseColorFactor":[
					0.7184249758720398,
					0.7184249758720398,
					0.7184249758720398,
					1
				],
				"roughnessFactor":0.27319586277008057
			}
		}
	],
	"meshes":[
		{
			"name":"Cube",
			"primitives":[
				{
					"attributes":{
						"POSITION":0,
						"NORMAL":1,
						"TEXCOORD_0":2,
						"TEXCOORD_1":3
					},
					"indices":4,
					"material":0
				},
				{
					"attributes":{
						"POSITION":5,
						"NORMAL":6,
						"TEXCOORD_0":7,
						"TEXCOORD_1":8
					},
					"indices":9,
					"material":1
				}
			]
		},
		{
			"name":"mesh",
			"primitives":[
				{
					"attributes":{
						"POSITION":10,
						"NORMAL":11
					},
					"indices":12,
					"material":2
				},
				{
					"attributes":{
						"POSITION":13,
						"NORMAL":14
					},
					"indices":15,
					"material":3
				}
			]
		}
	],
	"textures":[
		{
			"sampler":0,
			"source":0
		},
		{
			"sampler":0,
			"source":1
		},
		{
			"sampler":0,
			"source":2
		},
		{
			"sampler":0,
			"source":3
		}
	],
	"images":[
		{
			"mimeType":"image/jpeg",
			"name":"DefaultMaterial_Normal",
			"uri":"DefaultMaterial_Normal.jpg"
		},
		{
			"mimeType":"image/jpeg",
			"name":"DefaultMaterial_BaseColor",
			"uri":"DefaultMaterial_BaseColor.jpg"
		},
		{
			"mimeType":"image/png",
			"name":"DefaultMaterial_Roughness",
			"uri":"DefaultMaterial_Roughness.png"
		},
		{
			"mimeType":"image/png",
			"name":"panorama",
			"uri":"panorama.png"
		}
	],
	"accessors":[
		{
			"bufferView":0,
			"componentType":5126,
			"count":8,
			"max":[
				1,
				1,
				1
			],
			"min":[
				-1,
				-1,
				-1
			],
			"type":"VEC3"
		},
		{
			"bufferView":1,
			"componentType":5126,
			"count":8,
			"type":"VEC3"
		},
		{
			"bufferView":2,
			"componentType":5126,
			"count":8,
			"type":"VEC2"
		},
		{
			"bufferView":3,
			"componentType":5126,
			"count":8,
			"type":"VEC2"
		},
		{
			"bufferView":4,
			"componentType":5123,
			"count":12,
			"type":"SCALAR"
		},
		{
			"bufferView":5,
			"componentType":5126,
			"count":16,
			"max":[
				1,
				1,
				1
			],
			"min":[
				-1,
				-1,
				-1
			],
			"type":"VEC3"
		},
		{
			"bufferView":6,
			"componentType":5126,
			"count":16,
			"type":"VEC3"
		},
		{
			"bufferView":7,
			"componentType":5126,
			"count":16,
			"type":"VEC2"
		},
		{
			"bufferView":8,
			"componentType":5126,
			"count":16,
			"type":"VEC2"
		},
		{
			"bufferView":9,
			"componentType":5123,
			"count":24,
			"type":"SCALAR"
		},
		{
			"bufferView":10,
			"componentType":5126,
			"count":21109,
			"max":[
				0.32944053411483765,
				0.29323700070381165,
				0.18179000914096832
			],
			"min":[
				-0.3581688404083252,
				-0.5854876637458801,
				-0.20413245260715485
			],
			"type":"VEC3"
		},
		{
			"bufferView":11,
			"componentType":5126,
			"count":21109,
			"type":"VEC3"
		},
		{
			"bufferView":12,
			"componentType":5123,
			"count":126336,
			"type":"SCALAR"
		},
		{
			"bufferView":13,
			"componentType":5126,
			"count":2467,
			"max":[
				0.21855758130550385,
				0.9986750483512878,
				0.0373225137591362
			],
			"min":[
				-0.22592952847480774,
				0.2894502282142639,
				-0.05889492109417915
			],
			"type":"VEC3"
		},
		{
			"bufferView":14,
			"componentType":5126,
			"count":2467,
			"type":"VEC3"
		},
		{
			"bufferView":15,
			"componentType":5123,
			"count":14532,
			"type":"SCALAR"
		}
	],
	"bufferViews":[
		{
			"buffer":0,
			"byteLength":96,
			"byteOffset":0,
			"target":34962
		},
		{
			"buffer":0,
			"byteLength":96,
			"byteOffset":96,
			"target":34962
		},
		{
			"buffer":0,
			"byteLength":64,
			"byteOffset":192,
			"target":34962
		},
		{
			"buffer":0,
			"byteLength":64,
			"byteOffset":256,
			"target":34962
		},
		{
			"buffer":0,
			"byteLength":24,
			"byteOffset":320,
			"target":34963
		},
		{
			"buffer":0,
			"byteLength":192,
			"byteOffset":344,
			"target":34962
		},
		{
			"buffer":0,
			"byteLength":192,
			"byteOffset":536,
			"target":34962
		},
		{
			"buffer":0,
			"byteLength":128,
			"byteOffset":728,
			"target":34962
		},
		{
			"buffer":0,
			"byteLength":128,
			"byteOffset":856,
			"target":34962
		},
		{
			"buffer":0,
			"byteLength":48,
			"byteOffset":984,
			"target":34963
		},
		{
			"buffer":0,
			"byteLength":253308,
			"byteOffset":1032,
			"target":34962
		},
		{
			"buffer":0,
			"byteLength":253308,
			"byteOffset":254340,
			"target":34962
		},
		{
			"buffer":0,
			"byteLength":252672,
			"byteOffset":507648,
			"target":34963
		},
		{
			"buffer":0,
			"byteLength":29604,
			"byteOffset":760320,
			"target":34962
		},
		{
			"buffer":0,
			"byteLength":29604,
			"byteOffset":789924,
			"target":34962
		},
		{
			"buffer":0,
			"byteLength":29064,
			"byteOffset":819528,
			"target":34963
		}
	],
	"samplers":[
		{
			"magFilter":9729,
			"minFilter":9987
		}
	],
	"buffers":[
		{
			"byteLength":848592,
			"uri":"model.bin"
		}
	]
}
